<?xml version="1.0" standalone="no"?>
<!DOCTYPE svg PUBLIC "-//W3C//DTD SVG 20010904//EN"
 "http://www.w3.org/TR/2001/REC-SVG-20010904/DTD/svg10.dtd">
<svg version="1.0" xmlns="http://www.w3.org/2000/svg"
 width="500.000000pt" height="500.000000pt" viewBox="0 0 500.000000 500.000000"
 preserveAspectRatio="xMidYMid meet">
<metadata>
Created by potrace 1.11, written by Peter Selinger 2001-2013
</metadata>
<g transform="translate(0.000000,500.000000) scale(0.100000,-0.100000)"
fill="#000000" stroke="none">
<path d="M2310 4853 c-310 -43 -593 -188 -808 -412 -65 -68 -151 -178 -191
-244 l-23 -37 37 6 c55 8 229 9 315 0 279 -27 587 -165 790 -354 l66 -60 45
42 c25 23 61 53 80 66 19 14 42 31 51 40 33 30 176 111 273 155 90 40 230 83
325 99 98 18 269 24 373 14 31 -3 57 -2 57 2 0 16 -107 165 -162 227 -220 243
-476 387 -788 444 -80 15 -143 19 -260 17 -85 -1 -166 -3 -180 -5z"/>
<path d="M3478 4135 c-2 -1 -43 -5 -93 -9 -273 -19 -584 -155 -799 -349 l-60
-53 35 -38 c108 -119 230 -334 283 -501 25 -80 29 -96 48 -193 l10 -53 57 8
c68 9 338 9 404 0 27 -4 66 -12 88 -17 21 -6 58 -15 82 -21 50 -12 108 -32
161 -54 21 -9 42 -13 46 -8 16 18 82 191 101 267 37 144 48 234 45 386 -2 80
-6 156 -9 170 -4 14 -9 42 -11 63 -12 93 -98 339 -131 375 -6 7 -41 15 -76 17
-131 10 -178 12 -181 10z"/>
<path d="M1300 4121 c-29 -5 -39 -14 -57 -51 -55 -115 -106 -282 -121 -398 -9
-75 -9 -333 0 -397 14 -92 18 -109 49 -208 35 -113 84 -227 97 -227 5 0 30 9
54 20 45 20 202 64 268 75 125 22 289 26 435 11 l70 -7 18 88 c47 233 160 466
311 641 l46 53 -68 61 c-172 155 -407 273 -647 324 -83 18 -385 28 -455 15z"/>
<path d="M3790 4106 c0 -2 14 -36 30 -77 28 -67 60 -163 66 -198 1 -7 7 -34
13 -60 6 -25 14 -59 17 -76 11 -52 13 -347 3 -415 -15 -103 -46 -219 -90 -331
-22 -57 -41 -110 -42 -118 -1 -8 33 -34 79 -61 235 -136 430 -339 557 -580 52
-101 100 -223 118 -302 6 -32 15 -58 18 -58 21 0 149 185 203 295 59 120 104
255 123 365 3 19 8 47 11 61 8 40 8 296 0 369 -9 78 -47 233 -77 310 -72 189
-177 349 -329 500 -179 180 -368 288 -627 359 -40 11 -73 18 -73 17z"/>
<path d="M1091 4074 c-319 -94 -586 -291 -766 -564 -119 -181 -175 -324 -221
-570 -3 -19 -6 -109 -6 -200 0 -240 40 -417 138 -611 65 -130 179 -301 198
-296 5 2 22 47 38 101 68 231 189 429 374 614 68 67 128 122 133 122 5 0 17 7
25 16 15 15 188 120 209 127 7 2 -2 32 -22 78 -38 84 -65 165 -86 254 -12 55
-18 86 -30 177 -7 46 -6 254 0 308 18 142 67 323 115 422 11 23 20 43 20 45 0
8 -42 0 -119 -23z"/>
<path d="M2461 3653 c-103 -121 -209 -309 -259 -459 -27 -79 -62 -224 -62
-253 0 -6 19 -15 43 -21 83 -22 173 -53 245 -86 l72 -33 73 33 c65 30 104 44
245 87 43 12 43 13 37 48 -25 148 -100 354 -171 474 -51 85 -174 247 -187 247
-2 0 -18 -17 -36 -37z"/>
<path d="M1692 2909 c-62 -8 -109 -15 -147 -23 -42 -9 -192 -55 -228 -70 l-37
-16 26 -43 c33 -52 86 -128 99 -143 6 -6 28 -32 50 -59 50 -60 187 -181 260
-230 83 -55 176 -106 184 -100 4 2 25 32 46 67 21 35 65 96 97 135 l59 73 -8
73 c-5 41 -8 130 -7 200 l2 126 -42 7 c-57 10 -277 11 -354 3z"/>
<path d="M2975 2905 c-52 -8 -69 -14 -67 -25 11 -48 -1 -355 -14 -369 -2 -2
23 -36 55 -75 55 -66 135 -183 143 -208 6 -16 138 57 232 126 81 60 214 188
261 251 16 22 32 42 35 45 14 12 90 136 90 146 0 15 -200 81 -303 100 -100 19
-337 24 -432 9z"/>
<path d="M2134 2878 c-13 -20 -4 -321 9 -335 1 -1 23 17 47 41 54 51 148 122
214 163 26 17 44 33 38 37 -51 31 -300 108 -308 94z"/>
<path d="M2825 2880 c-114 -31 -207 -64 -258 -92 -18 -9 -16 -13 29 -41 65
-40 158 -111 217 -166 44 -41 47 -42 48 -20 0 13 2 33 5 44 2 11 4 72 3 135 0
63 0 123 0 133 0 19 0 19 -44 7z"/>
<path d="M1185 2752 c-117 -65 -248 -163 -338 -254 -170 -173 -336 -484 -363
-683 -5 -41 -4 -43 51 -93 210 -192 494 -325 766 -359 80 -10 319 -10 380 0
l46 8 -1 120 c-4 231 35 428 124 626 31 68 31 67 -30 98 -199 101 -413 303
-546 517 -16 27 -31 48 -34 48 -3 0 -27 -13 -55 -28z"/>
<path d="M3690 2678 c-69 -107 -210 -259 -315 -339 -71 -55 -205 -139 -220
-139 -30 0 -34 -23 -11 -69 53 -106 110 -307 123 -436 4 -38 7 -127 7 -196 l0
-127 60 -10 c61 -10 321 -9 386 2 203 33 399 109 569 221 88 58 231 183 231
202 0 8 -7 43 -16 77 -86 341 -290 627 -584 823 -65 44 -153 94 -162 93 -2 -1
-32 -46 -68 -102z"/>
<path d="M2397 2690 c-88 -59 -136 -96 -211 -164 l-40 -36 18 -73 c10 -39 38
-125 64 -190 37 -97 50 -121 71 -129 31 -12 329 -16 382 -5 33 7 40 14 64 65
32 68 91 242 99 294 5 33 2 41 -38 80 -45 44 -53 51 -121 104 -54 42 -172 114
-188 114 -6 0 -52 -27 -100 -60z"/>
<path d="M2861 2358 c-13 -51 -27 -97 -31 -103 -4 -5 -12 -23 -18 -40 -5 -16
-17 -47 -27 -68 l-16 -39 33 7 c43 8 173 49 221 70 l38 16 -21 37 c-24 40 -95
141 -132 185 l-23 28 -24 -93z"/>
<path d="M2053 2373 c-83 -112 -116 -164 -107 -172 24 -21 271 -98 281 -87 2
1 -8 25 -21 52 -25 52 -70 188 -81 242 -4 17 -10 32 -14 32 -4 0 -30 -30 -58
-67z"/>
<path d="M1900 2133 c-17 -38 -60 -145 -65 -163 -3 -8 -13 -48 -25 -89 -30
-111 -47 -256 -44 -381 1 -61 4 -113 6 -115 2 -2 39 5 83 16 173 45 414 177
552 303 l62 57 -62 77 c-35 43 -83 110 -107 150 -46 74 -50 77 -110 87 -19 3
-88 24 -154 45 -65 22 -119 40 -120 40 -2 0 -9 -12 -16 -27z"/>
<path d="M2986 2129 c-44 -17 -115 -38 -159 -47 l-80 -18 -49 -78 c-48 -77
-102 -149 -146 -194 l-23 -24 23 -25 c43 -47 183 -154 258 -198 119 -70 270
-133 362 -150 11 -2 28 -7 39 -10 17 -6 19 -1 20 37 7 206 -8 340 -53 492 -37
125 -87 246 -102 245 -6 0 -47 -14 -90 -30z"/>
<path d="M2327 2020 c36 -57 103 -148 137 -185 l36 -40 36 40 c34 38 101 128
138 186 l16 26 -190 -1 -189 -1 16 -25z"/>
<path d="M463 1712 c-7 -79 -8 -304 -2 -345 5 -29 11 -69 14 -91 10 -60 53
-203 89 -292 119 -292 373 -561 665 -704 325 -159 725 -185 1063 -69 51 17
108 39 127 49 l34 17 -54 33 c-242 149 -445 385 -559 653 -38 90 -82 241 -95
325 -6 39 -8 42 -33 36 -56 -13 -376 -13 -452 1 -277 49 -545 176 -723 341
-66 62 -72 66 -74 46z"/>
<path d="M2420 1663 c-98 -85 -169 -133 -294 -198 -90 -47 -237 -101 -322
-119 l-31 -7 19 -87 c59 -281 184 -511 387 -713 92 -91 165 -148 262 -205 l60
-36 85 54 c310 194 530 507 614 870 24 105 22 128 -10 128 -27 0 -136 35 -230
73 -149 61 -337 185 -432 285 -12 12 -24 22 -27 21 -3 0 -40 -30 -81 -66z"/>
<path d="M4490 1693 c-100 -99 -317 -234 -470 -292 -72 -28 -235 -69 -307 -79
-79 -9 -325 -9 -395 2 -55 8 -58 7 -58 -13 0 -35 -48 -220 -76 -293 -106 -278
-304 -523 -562 -693 -56 -37 -70 -51 -58 -57 27 -15 207 -78 254 -89 26 -6 56
-13 67 -15 89 -20 374 -27 487 -11 279 39 581 196 783 409 210 220 328 466
381 793 10 57 7 326 -3 352 -8 21 -9 20 -43 -14z"/>
</g>
</svg>
